HIERARCHY
ROOT hip
{
  OFFSET -0.163291 85.6566 0.546495
  CHANNELS 6 Xposition Yposition Zposition Zrotation Xrotation Yrotation
  JOINT abdomen
  {
    OFFSET 0 7.2397 0
    CHANNELS 6 Xposition Yposition Zposition Zrotation Xrotation Yrotation
    JOINT chest
    {
      OFFSET 0 16.546 0
      CHANNELS 6 Xposition Yposition Zposition Zrotation Xrotation Yrotation
      JOINT neck
      {
        OFFSET 0 34.2149 0
        CHANNELS 6 Xposition Yposition Zposition Zrotation Xrotation Yrotation
        JOINT head
        {
          OFFSET 0 6.2923 0
          CHANNELS 6 Xposition Yposition Zposition Zrotation Xrotation Yrotation
          End Site
          {
            OFFSET 0 21.2161 0
          }
        }
      }
      JOINT lCollar
      {
        OFFSET 4.0639 26.6115 -1.1234
        CHANNELS 6 Xposition Yposition Zposition Zrotation Xrotation Yrotation
        JOINT lShldr
        {
          OFFSET 14.1772 0 0
          CHANNELS 6 Xposition Yposition Zposition Zrotation Xrotation Yrotation
          JOINT lForeArm
          {
            OFFSET 26.1234 0 0
            CHANNELS 6 Xposition Yposition Zposition Zrotation Xrotation Yrotation
            JOINT lHand
            {
              OFFSET 27.7188 0 0
              CHANNELS 6 Xposition Yposition Zposition Zrotation Xrotation Yrotation
              JOINT lThumb1
              {
                OFFSET 2.2979 -0.4685 1.8313
                CHANNELS 6 Xposition Yposition Zposition Zrotation Xrotation Yrotation
                JOINT lThumb2
                {
                  OFFSET 5.2953 0 0
                  CHANNELS 6 Xposition Yposition Zposition Zrotation Xrotation Yrotation
                  JOINT lThumb3
                  {
                    OFFSET 3.0181 0 0
                    CHANNELS 6 Xposition Yposition Zposition Zrotation Xrotation Yrotation
                    End Site
                    {
                      OFFSET 2.6294 0 0
                    }
                  }
                }
              }
              JOINT lIndex1
              {
                OFFSET 9.3793 0.2991 2.5924
                CHANNELS 6 Xposition Yposition Zposition Zrotation Xrotation Yrotation
                JOINT lIndex2
                {
                  OFFSET 4.3461 0 0
                  CHANNELS 6 Xposition Yposition Zposition Zrotation Xrotation Yrotation
                  JOINT lIndex3
                  {
                    OFFSET 2.1666 0 0
                    CHANNELS 6 Xposition Yposition Zposition Zrotation Xrotation Yrotation
                    End Site
                    {
                      OFFSET 2.2048 0 0
                    }
                  }
                }
              }
              JOINT lMid1
              {
                OFFSET 9.4769 0.8376 0.2947
                CHANNELS 6 Xposition Yposition Zposition Zrotation Xrotation Yrotation
                JOINT lMid2
                {
                  OFFSET 4.772 0 0
                  CHANNELS 6 Xposition Yposition Zposition Zrotation Xrotation Yrotation
                  JOINT lMid3
                  {
                    OFFSET 2.8722 0 0
                    CHANNELS 6 Xposition Yposition Zposition Zrotation Xrotation Yrotation
                    End Site
                    {
                      OFFSET 2.0959 0 0
                    }
                  }
                }
              }
              JOINT lRing1
              {
                OFFSET 8.6586 1.0176 -1.7016
                CHANNELS 6 Xposition Yposition Zposition Zrotation Xrotation Yrotation
                JOINT lRing2
                {
                  OFFSET 4.5461 0 0
                  CHANNELS 6 Xposition Yposition Zposition Zrotation Xrotation Yrotation
                  JOINT lRing3
                  {
                    OFFSET 2.506 0 0
                    CHANNELS 6 Xposition Yposition Zposition Zrotation Xrotation Yrotation
                    End Site
                    {
                      OFFSET 2.2023 0 0
                    }
                  }
                }
              }
              JOINT lPinky1
              {
                OFFSET 7.6901 0.6618 -3.9096
                CHANNELS 6 Xposition Yposition Zposition Zrotation Xrotation Yrotation
                JOINT lPinky2
                {
                  OFFSET 3.2119 0 0
                  CHANNELS 6 Xposition Yposition Zposition Zrotation Xrotation Yrotation
                  JOINT lPinky3
                  {
                    OFFSET 1.924 0 0
                    CHANNELS 6 Xposition Yposition Zposition Zrotation Xrotation Yrotation
                    End Site
                    {
                      OFFSET 1.7829 0 0
                    }
                  }
                }
              }
            }
          }
        }
      }
      JOINT rCollar
      {
        OFFSET -4.0677 26.6109 -1.1234
        CHANNELS 6 Xposition Yposition Zposition Zrotation Xrotation Yrotation
        JOINT rShldr
        {
          OFFSET -14.1772 0 0
          CHANNELS 6 Xposition Yposition Zposition Zrotation Xrotation Yrotation
          JOINT rForeArm
          {
            OFFSET -26.1234 0 0
            CHANNELS 6 Xposition Yposition Zposition Zrotation Xrotation Yrotation
            JOINT rHand
            {
              OFFSET -27.7188 0 0
              CHANNELS 6 Xposition Yposition Zposition Zrotation Xrotation Yrotation
              JOINT rThumb1
              {
                OFFSET -2.2979 -0.4684 1.8313
                CHANNELS 6 Xposition Yposition Zposition Zrotation Xrotation Yrotation
                JOINT rThumb2
                {
                  OFFSET -5.2953 0 0
                  CHANNELS 6 Xposition Yposition Zposition Zrotation Xrotation Yrotation
                  JOINT rThumb3
                  {
                    OFFSET -3.0181 0 0
                    CHANNELS 6 Xposition Yposition Zposition Zrotation Xrotation Yrotation
                    End Site
                    {
                      OFFSET -2.6294 0 0
                    }
                  }
                }
              }
              JOINT rIndex1
              {
                OFFSET -9.3793 0.2991 2.5924
                CHANNELS 6 Xposition Yposition Zposition Zrotation Xrotation Yrotation
                JOINT rIndex2
                {
                  OFFSET -4.3461 0 0
                  CHANNELS 6 Xposition Yposition Zposition Zrotation Xrotation Yrotation
                  JOINT rIndex3
                  {
                    OFFSET -2.1666 0 0
                    CHANNELS 6 Xposition Yposition Zposition Zrotation Xrotation Yrotation
                    End Site
                    {
                      OFFSET -2.2048 0 0
                    }
                  }
                }
              }
              JOINT rMid1
              {
                OFFSET -9.4769 0.8376 0.2947
                CHANNELS 6 Xposition Yposition Zposition Zrotation Xrotation Yrotation
                JOINT rMid2
                {
                  OFFSET -4.772 0 0
                  CHANNELS 6 Xposition Yposition Zposition Zrotation Xrotation Yrotation
                  JOINT rMid3
                  {
                    OFFSET -2.8722 0 0
                    CHANNELS 6 Xposition Yposition Zposition Zrotation Xrotation Yrotation
                    End Site
                    {
                      OFFSET -2.0959 0 0
                    }
                  }
                }
              }
              JOINT rRing1
              {
                OFFSET -8.6586 1.0176 -1.7016
                CHANNELS 6 Xposition Yposition Zposition Zrotation Xrotation Yrotation
                JOINT rRing2
                {
                  OFFSET -4.5461 0 0
                  CHANNELS 6 Xposition Yposition Zposition Zrotation Xrotation Yrotation
                  JOINT rRing3
                  {
                    OFFSET -2.506 0 0
                    CHANNELS 6 Xposition Yposition Zposition Zrotation Xrotation Yrotation
                    End Site
                    {
                      OFFSET -2.2023 0 0
                    }
                  }
                }
              }
              JOINT rPinky1
              {
                OFFSET -7.6901 0.6618 -3.9096
                CHANNELS 6 Xposition Yposition Zposition Zrotation Xrotation Yrotation
                JOINT rPinky2
                {
                  OFFSET -3.2119 0 0
                  CHANNELS 6 Xposition Yposition Zposition Zrotation Xrotation Yrotation
                  JOINT rPinky3
                  {
                    OFFSET -1.924 0 0
                    CHANNELS 6 Xposition Yposition Zposition Zrotation Xrotation Yrotation
                    End Site
                    {
                      OFFSET -1.7829 0 0
                    }
                  }
                }
              }
            }
          }
        }
      }
    }
  }
  JOINT lThigh
  {
    OFFSET 8.7379 -0.0029 0.0005
    CHANNELS 6 Xposition Yposition Zposition Zrotation Xrotation Yrotation
    JOINT lShin
    {
      OFFSET 0 -46.6676 0
      CHANNELS 6 Xposition Yposition Zposition Zrotation Xrotation Yrotation
      JOINT lFoot
      {
        OFFSET 0 -40.1476 0
        CHANNELS 6 Xposition Yposition Zposition Zrotation Xrotation Yrotation
        JOINT lToes
        {
          OFFSET 0 -8.8846 14.2294
          CHANNELS 6 Xposition Yposition Zposition Zrotation Xrotation Yrotation
          End Site
          {
            OFFSET 0 0 6.296
          }
        }
      }
    }
  }
  JOINT rThigh
  {
    OFFSET -8.7379 0.0029 -0.0005
    CHANNELS 6 Xposition Yposition Zposition Zrotation Xrotation Yrotation
    JOINT rShin
    {
      OFFSET 0 -46.6676 0
      CHANNELS 6 Xposition Yposition Zposition Zrotation Xrotation Yrotation
      JOINT rFoot
      {
        OFFSET 0 -40.1476 0
        CHANNELS 6 Xposition Yposition Zposition Zrotation Xrotation Yrotation
        JOINT rToes
        {
          OFFSET 0 -8.8846 14.2294
          CHANNELS 6 Xposition Yposition Zposition Zrotation Xrotation Yrotation
          End Site
          {
            OFFSET 0 0 6.296
          }
        }
      }
    }
  }
}
MOTION
Frames:	4
Frame Time:	0.0333333
-0.115334 84.6716 0.660697 -2.45635 -15.4257 -28.7954 0 7.2397 0 -2.20497 13.0114 3.09378 8.88178e-16 16.546 6.66134e-16 -4.58943 27.7775 6.63038 4.44089e-16 34.2149 -7.10543e-15 1.64654 10.2271 6.83599 -1.77636e-15 6.2923 -1.42109e-14 -2.98896 -34.7826 -2.07174 4.0639 26.6115 -1.1234 -16.9439 -56.2807 -45.0634 14.1772 -1.42109e-14 1.42109e-14 -66.0463 -4.71305 -25.2092 26.1234 0 0 -0.942064 -1.14288 -38.2416 27.7188 -1.42109e-14 -1.42109e-14 43.1925 -25.4532 17.6516 2.2979 -0.4685 1.8313 51.5922 48.2614 -79.1066 5.2953 -7.10543e-15 0 -2.72466 -4.14111 -7.68637 3.0181 7.10543e-15 -7.10543e-15 12.4883 -0.000101838 6.73584e-06 9.3793 0.2991 2.5924 -15.7801 0.649763 12.0681 4.3461 -3.55271e-15 0 -39.3694 -1.63677 4.62371 2.1666 1.42109e-14 0 -2.1684 4.43879e-06 -1.59158e-06 9.4769 0.8376 0.2947 -19.6419 -10.2995 14.2658 4.772 1.06581e-14 0 -46.0931 -1.49044 3.22642 2.8722 0 2.84217e-14 3.95741 0.0710973 0.399401 8.6586 1.0176 -1.7016 -23.5799 -12.3424 11.2229 4.5461 0 -1.42109e-14 -40.0013 1.01798 -2.23799 2.506 7.10543e-15 0 6.7605 -6.42453e-06 -0.000103295 7.6901 0.6618 -3.9096 -27.8426 -16.9533 0.906696 3.2119 -7.10543e-15 1.42109e-14 -50.6581 -0.2691 3.21898 1.924 0 0 4.4131 -1.27286e-06 2.36422e-06 -4.0677 26.6109 -1.1234 18.3513 -41.1998 47.8339 -14.1772 0 -7.10543e-15 36.9169 6.77318 57.2297 -26.1234 1.42109e-14 -1.42109e-14 0.200232 -0.235335 11.689 -27.7188 0 7.10543e-15 -30.036 -46.8768 -18.2471 -2.2979 -0.4684 1.8313 -117.649 55.7214 142.121 -5.2953 0 -1.42109e-14 2.59565 2.92555 -2.58532 -3.0181 -7.10543e-15 1.42109e-14 -12.4883 -9.63691e-05 8.7481e-05 -9.3793 0.2991 2.5924 8.23289 0.361166 8.94714 -4.3461 -1.77636e-15 2.84217e-14 26.5282 -0.619701 -4.07204 -2.1666 0 -1.42109e-14 2.1682 3.00439e-06 -1.75966e-08 -9.4769 0.8376 0.2947 27.9474 -5.09001 8.10469 -4.772 -3.55271e-15 0 96.0184 -6.02193 -5.06632 -2.8722 0 -2.84217e-14 -3.95751 0.0709978 -0.399401 -8.6586 1.0176 -1.7016 30.9576 -3.09095 10.3438 -4.5461 0 -1.42109e-14 85.7045 4.28396 4.2524 -2.506 0 0 -6.7605 3.16202e-06 -9.83054e-07 -7.6901 0.6618 -3.9096 40.0884 -7.72671 3.93262 -3.2119 0 -1.42109e-14 45.5583 3.67489 -0.944596 -1.924 0 -1.42109e-14 -4.413 -1.17676e-05 -6.09334e-07 8.7379 -0.0029 0.0005 20.7653 -17.8094 32.1262 0 -46.6676 0 4.8523 43.5482 -2.08063 0 -40.1476 0 -7.94377 -2.74294 20.9604 -1.77636e-15 -8.8846 14.2294 0.0001 0 -3.18055e-15 -8.7379 0.0029 -0.0005 -24.1517 -3.46616 -13.2868 3.55271e-15 -46.6676 0 -8.06427 57.1343 4.62671 3.55271e-15 -40.1476 -2.66454e-15 20.6966 -33.3939 10.7518 0 -8.8846 14.2294 0 0 -3.18055e-15 
-0.0211545 84.7688 0.465167 -2.58107 -15.1259 -28.8324 -8.88178e-16 7.2397 0 -2.33129 13.1079 3.15279 -8.88178e-16 16.546 -2.22045e-16 -4.90882 27.9585 6.82773 4.44089e-16 34.2149 7.10543e-15 1.12095 10.8028 6.78147 -1.77636e-15 6.2923 0 -2.7024 -34.8101 -1.99959 4.0639 26.6115 -1.1234 -17.4821 -56.0462 -45.4506 14.1772 0 0 -66.2588 -5.24618 -26.7701 26.1234 0 1.42109e-14 -0.898114 -1.09994 -36.8394 27.7188 0 0 43.08 -25.6254 19.0208 2.2979 -0.4685 1.8313 53.9488 48.5648 -80.323 5.2953 -1.42109e-14 -7.10543e-15 -2.73716 -4.06111 -7.71924 3.0181 0 0 12.4883 -0.000101838 6.73584e-06 9.3793 0.2991 2.5924 -15.4845 0.624254 12.0835 4.3461 3.55271e-15 0 -38.7518 -1.57504 4.57985 2.1666 0 0 -2.1684 4.43879e-06 -1.59158e-06 9.4769 0.8376 0.2947 -20.0341 -10.3899 13.9255 4.772 1.42109e-14 -2.84217e-14 -45.3186 -1.44754 3.19306 2.8722 -7.10543e-15 0 3.95741 0.0710973 0.399401 8.6586 1.0176 -1.7016 -23.2157 -12.3104 11.073 4.5461 3.55271e-15 -1.42109e-14 -39.6937 1.005 -2.23235 2.506 0 -1.42109e-14 6.7605 -6.42453e-06 -0.000103295 7.6901 0.6618 -3.9096 -27.3629 -16.9071 0.53194 3.2119 -7.10543e-15 0 -50.696 -0.272616 3.2227 1.924 -7.10543e-15 1.42109e-14 4.4131 -1.27286e-06 2.36422e-06 -4.0677 26.6109 -1.1234 18.2367 -41.2553 47.821 -14.1772 0 -7.10543e-15 35.3269 6.72093 58.9618 -26.1234 0 -1.42109e-14 0.140104 -0.120346 8.71936 -27.7188 -1.42109e-14 0 -28.837 -47.7259 -18.9221 -2.2979 -0.4684 1.8313 -117.52 56.1688 141.938 -5.2953 -2.84217e-14 2.84217e-14 2.61237 2.92457 -2.58971 -3.0181 2.84217e-14 0 -12.4883 -9.63691e-05 8.7481e-05 -9.3793 0.2991 2.5924 8.22436 0.302628 9.00814 -4.3461 1.77636e-15 -1.42109e-14 23.704 -0.446529 -3.71579 -2.1666 1.42109e-14 0 2.1682 3.00439e-06 -1.75966e-08 -9.4769 0.8376 0.2947 28.042 -5.09453 8.27541 -4.772 0 0 96.0706 -6.02632 -5.06749 -2.8722 0 2.84217e-14 -3.95751 0.0709978 -0.399401 -8.6586 1.0176 -1.7016 31.2361 -3.09966 10.5508 -4.5461 0 0 85.8543 4.29542 4.25147 -2.506 0 -1.42109e-14 -6.7605 3.16202e-06 -9.83054e-07 -7.6901 0.6618 -3.9096 40.292 -7.728 4.36478 -3.2119 0 0 45.846 3.6599 -0.949745 -1.924 0 0 -4.413 -1.17676e-05 -6.09334e-07 8.7379 -0.0029 0.0005 20.9179 -17.9633 32.1147 -1.77636e-15 -46.6676 -7.10543e-15 4.77474 43.1106 -2.05291 -3.55271e-15 -40.1476 0 -7.94868 -2.35686 21.152 1.77636e-15 -8.8846 14.2294 0.0001 0 -3.18055e-15 -8.7379 0.0029 -0.0005 -23.9398 -3.72389 -13.6143 -3.55271e-15 -46.6676 0 -7.98291 56.9193 4.44785 3.55271e-15 -40.1476 1.33227e-15 20.5036 -33.0689 10.7474 -3.55271e-15 -8.8846 14.2294 -9.93923e-17 9.93923e-17 -6.36111e-15 
0.0888579 84.8803 0.31913 -2.68996 -14.7016 -28.9379 0 7.2397 3.55271e-15 -2.41096 13.1725 3.2104 4.44089e-16 16.546 0 -5.13416 28.0779 7.00562 7.77156e-16 34.2149 0 0.685466 11.1105 6.60693 0 6.2923 1.42109e-14 -2.42886 -34.995 -2.00659 4.0639 26.6115 -1.1234 -17.9536 -55.8366 -45.7888 14.1772 0 0 -66.1832 -5.63183 -27.8469 26.1234 0 2.84217e-14 -0.876465 -1.0764 -36.1148 27.7188 0 -1.42109e-14 42.8941 -26.0492 19.8867 2.2979 -0.4685 1.8313 55.8642 48.7674 -81.3987 5.2953 -1.42109e-14 0 -2.74007 -4.04386 -7.72632 3.0181 1.42109e-14 7.10543e-15 12.4883 -0.000101838 6.73584e-06 9.3793 0.2991 2.5924 -15.455 0.614714 11.984 4.3461 -7.10543e-15 -2.84217e-14 -38.279 -1.52281 4.54916 2.1666 0 0 -2.1684 4.43879e-06 -1.59158e-06 9.4769 0.8376 0.2947 -20.3506 -10.4527 13.8291 4.772 1.42109e-14 0 -44.8809 -1.42362 3.17385 2.8722 0 0 3.95741 0.0710973 0.399401 8.6586 1.0176 -1.7016 -23.1393 -12.3014 11.0227 4.5461 0 1.42109e-14 -39.597 1.0008 -2.2313 2.506 0 1.42109e-14 6.7605 -6.42453e-06 -0.000103295 7.6901 0.6618 -3.9096 -27.0869 -16.8903 0.435657 3.2119 0 0 -50.6661 -0.269837 3.21976 1.924 -7.10543e-15 0 4.4131 -1.27286e-06 2.36422e-06 -4.0677 26.6109 -1.1234 18.2144 -41.2401 47.8729 -14.1772 2.84217e-14 0 34.0071 6.62172 60.3653 -26.1234 0 0 0.100606 -0.0367209 6.6032 -27.7188 0 -1.42109e-14 -28.1999 -48.0709 -19.2848 -2.2979 -0.4684 1.8313 -117.43 56.2949 141.78 -5.2953 0 0 2.58069 2.92636 -2.58131 -3.0181 1.42109e-14 0 -12.4883 -9.63691e-05 8.7481e-05 -9.3793 0.2991 2.5924 8.26649 0.263157 9.01736 -4.3461 -3.55271e-15 0 21.84 -0.341974 -3.47624 -2.1666 0 -2.84217e-14 2.1682 3.00439e-06 -1.75966e-08 -9.4769 0.8376 0.2947 28.2438 -5.09768 8.44091 -4.772 0 -4.26326e-14 96.0692 -6.02622 -5.06747 -2.8722 -1.42109e-14 0 -3.95751 0.0709978 -0.399401 -8.6586 1.0176 -1.7016 31.6125 -3.10977 10.6882 -4.5461 0 2.84217e-14 85.9112 4.2998 4.2511 -2.506 0 0 -6.7605 3.16202e-06 -9.83054e-07 -7.6901 0.6618 -3.9096 40.3228 -7.73133 4.50897 -3.2119 -7.10543e-15 1.42109e-14 46.0502 3.64932 -0.953338 -1.924 0 2.84217e-14 -4.413 -1.17676e-05 -6.09334e-07 8.7379 -0.0029 0.0005 21.1371 -18.1811 32.2116 1.77636e-15 -46.6676 0 4.70459 42.7101 -2.02675 -3.55271e-15 -40.1476 -7.10543e-15 -7.97491 -2.00741 21.3394 -1.77636e-15 -8.8846 14.2294 0.0001 -1.49089e-16 -6.36111e-15 -8.7379 0.0029 -0.0005 -23.6773 -4.07455 -13.8821 0 -46.6676 0 -7.88216 56.6375 4.25683 0 -40.1476 2.66454e-15 20.2911 -32.755 10.6864 0 -8.8846 14.2294 0 0 -3.18055e-15 
0.205683 84.9847 0.226862 -2.77911 -14.2022 -29.1081 0 7.2397 0 -2.44091 13.2033 3.27872 0 16.546 3.33067e-16 -5.25942 28.1319 7.18519 6.66134e-16 34.2149 7.10543e-15 0.297097 11.2394 6.38295 0 6.2923 2.84217e-14 -2.17758 -35.2483 -2.03945 4.0639 26.6115 -1.1234 -18.2329 -55.7111 -45.987 14.1772 -1.42109e-14 -1.42109e-14 -66.0905 -6.02982 -28.6795 26.1234 0 0 -0.863366 -1.06205 -35.6792 27.7188 0 -1.42109e-14 42.3728 -26.3566 20.3089 2.2979 -0.4685 1.8313 58.0282 48.9237 -82.593 5.2953 7.10543e-15 -1.06581e-14 -2.74759 -3.99538 -7.74583 3.0181 -2.13163e-14 -1.42109e-14 12.4883 -0.000101838 6.73584e-06 9.3793 0.2991 2.5924 -15.2494 0.566001 11.8838 4.3461 3.55271e-15 -2.84217e-14 -38.0308 -1.48755 4.53769 2.1666 -7.10543e-15 0 -2.1684 4.43879e-06 -1.59158e-06 9.4769 0.8376 0.2947 -20.345 -10.5077 13.5903 4.772 0 -2.84217e-14 -44.7671 -1.41771 3.16855 2.8722 0 0 3.95741 0.0710973 0.399401 8.6586 1.0176 -1.7016 -23.0374 -12.3133 10.7479 4.5461 -7.10543e-15 1.42109e-14 -40.003 1.0161 -2.24741 2.506 -7.10543e-15 2.84217e-14 6.7605 -6.42453e-06 -0.000103295 7.6901 0.6618 -3.9096 -26.6239 -16.87 0.501102 3.2119 -7.10543e-15 0 -50.6696 -0.270162 3.22004 1.924 -7.10543e-15 0 4.4131 -1.27286e-06 2.36422e-06 -4.0677 26.6109 -1.1234 18.4059 -41.0381 48.1096 -14.1772 2.84217e-14 0 32.4151 6.53913 61.2822 -26.1234 0 0 0.0835449 0.00220506 5.6369 -27.7188 0 -7.10543e-15 -28.6384 -48.4041 -20.44 -2.2979 -0.4684 1.8313 -117.492 56.3771 141.973 -5.2953 0 -1.42109e-14 2.57712 2.92652 -2.58034 -3.0181 0 0 -12.4883 -9.63691e-05 8.7481e-05 -9.3793 0.2991 2.5924 8.38398 0.24721 9.08024 -4.3461 7.10543e-15 0 21.1505 -0.305276 -3.38677 -2.1666 0 -2.84217e-14 2.1682 3.00439e-06 -1.75966e-08 -9.4769 0.8376 0.2947 28.4044 -5.10163 8.54453 -4.772 0 4.26326e-14 96.1337 -6.03161 -5.06888 -2.8722 2.84217e-14 4.26326e-14 -3.95751 0.0709978 -0.399401 -8.6586 1.0176 -1.7016 31.8762 -3.1146 10.6438 -4.5461 0 0 85.9787 4.30495 4.25071 -2.506 1.42109e-14 0 -6.7605 3.16202e-06 -9.83054e-07 -7.6901 0.6618 -3.9096 40.2342 -7.73593 4.43695 -3.2119 0 -1.42109e-14 46.2071 3.64124 -0.956008 -1.924 -1.42109e-14 1.42109e-14 -4.413 -1.17676e-05 -6.09334e-07 8.7379 -0.0029 0.0005 21.4286 -18.4459 32.4502 -1.77636e-15 -46.6676 0 4.65472 42.4223 -2.00801 -3.55271e-15 -40.1476 0 -8.01046 -1.74619 21.4704 1.77636e-15 -8.8846 14.2294 0.0001 -7.45443e-17 -3.18055e-15 -8.7379 0.0029 -0.0005 -23.4373 -4.47388 -14.1435 3.55271e-15 -46.6676 0 -7.78 56.3368 4.08892 0 -40.1476 1.77636e-15 20.2649 -32.5217 10.8092 0 -8.8846 14.2294 -1.98785e-16 -1.98785e-16 -3.18055e-15 
